<svg width="223" height="68" viewBox="0 0 223 68" fill="none" xmlns="http://www.w3.org/2000/svg">
<path d="M67.989 47.481C65.251 47.481 62.994 46.7657 61.218 45.335C59.4667 43.9043 58.406 42.005 58.036 39.637L62.698 38.49C62.9693 40.0687 63.586 41.2527 64.548 42.042C65.5347 42.8313 66.7433 43.226 68.174 43.226C68.9387 43.226 69.617 43.1027 70.209 42.856C70.8257 42.5847 71.3067 42.2023 71.652 41.709C72.022 41.191 72.207 40.5867 72.207 39.896C72.207 39.2547 72.022 38.6997 71.652 38.231C71.282 37.7623 70.7147 37.3307 69.95 36.936C69.21 36.5413 68.2727 36.1343 67.138 35.715C65.51 35.0737 64.141 34.3953 63.031 33.68C61.9457 32.94 61.1317 32.089 60.589 31.127C60.0463 30.165 59.775 29.0303 59.775 27.723C59.775 26.3417 60.108 25.1207 60.774 24.06C61.4647 22.9993 62.4143 22.1607 63.623 21.544C64.8563 20.9273 66.287 20.619 67.915 20.619C69.6417 20.619 71.171 21.026 72.503 21.84C73.8597 22.6293 74.945 23.8133 75.759 25.392L71.948 27.723C71.43 26.7857 70.8133 26.0827 70.098 25.614C69.4073 25.1207 68.6303 24.874 67.767 24.874C67.1503 24.874 66.5953 24.9973 66.102 25.244C65.6333 25.466 65.251 25.7867 64.955 26.206C64.6837 26.6007 64.548 27.0693 64.548 27.612C64.548 28.1793 64.7083 28.685 65.029 29.129C65.3743 29.573 65.917 30.0047 66.657 30.424C67.4217 30.8187 68.4083 31.238 69.617 31.682C71.2203 32.274 72.5523 32.9277 73.613 33.643C74.6983 34.3583 75.5247 35.197 76.092 36.159C76.6593 37.0963 76.943 38.2433 76.943 39.6C76.943 41.1293 76.5607 42.4983 75.796 43.707C75.056 44.891 74.02 45.816 72.688 46.482C71.356 47.148 69.7897 47.481 67.989 47.481ZM86.339 47V36.899L77.274 21.211H82.75L88.596 32.163L94.664 21.211H100.103L91.112 36.899V47H86.339ZM102.73 47V21.211H107.651L119.676 40.747H118.492V21.211H123.265V47H118.307L106.319 27.427H107.503V47H102.73ZM134.16 47V25.503H126.168V21.211H146.962V25.503H139.007V47H134.16ZM147.886 47L156.47 34.124L147.886 21.211H153.621L159.763 30.794L165.905 21.211H171.603L163.056 34.124L171.677 47H165.942L159.726 37.602L153.584 47H147.886ZM182.063 47L192.423 21.211H196.012L206.372 47H201.155L194.273 28.278L187.28 47H182.063ZM188.871 41.968L190.351 37.676H198.121L199.675 41.968H188.871ZM209.177 47V21.211H213.95V47H209.177Z" fill="black"/>
<rect width="48" height="53" transform="translate(0 8)" fill="white"/>
<path d="M26.4563 53.5628C26.3945 53.4643 26.4306 53.3838 26.5364 53.3838C26.6422 53.3838 26.7288 53.4643 26.7288 53.5628C26.7288 53.6613 26.6928 53.7418 26.6487 53.7418C26.6046 53.7418 26.518 53.6613 26.4563 53.5628ZM18.5059 51.0994C16.0233 51.0571 15.4621 51.0007 15.4621 50.7935C15.4621 50.6537 15.6438 50.414 15.866 50.2607C16.4944 49.827 15.9199 49.9124 14.0878 50.5251C13.0616 50.8682 12.1883 51.0495 11.7157 51.0174L10.9677 50.9667L12.7949 49.4001L14.6222 47.8334L19.6306 47.7905C25.8598 47.737 27.4486 47.7935 27.91 48.0858C28.1218 48.2199 29.1458 48.3587 30.3633 48.4184C32.5546 48.5257 33.0853 48.6333 33.0949 48.9716C33.098 49.0842 33.215 49.325 33.3549 49.5068C33.5926 49.816 33.6328 49.7915 33.9764 49.1279C34.1785 48.7377 34.5623 48.1625 34.8294 47.8498C35.4242 47.1533 35.3074 46.982 34.5088 47.3797C33.9548 47.6556 31.4665 48.053 31.2834 47.8948C31.2397 47.8571 32.3946 46.6395 33.8497 45.189C36.2685 42.7779 36.5159 42.4711 36.7347 41.6117C36.8663 41.0947 37.0511 40.6717 37.1453 40.6717C37.4577 40.6717 37.1307 39.261 36.6963 38.7342C35.6235 37.4335 30.2591 31.8902 29.9924 31.8068C29.8282 31.7555 29.5148 31.5256 29.2959 31.2961C28.9614 30.9453 28.8416 30.4262 28.5451 28.0417C28.3511 26.4814 28.2308 25.167 28.2778 25.1207C28.3247 25.0744 31.3877 28.0509 35.0843 31.7351C42.2279 38.8547 42.3235 38.9512 43.802 40.5309L44.7594 41.5538L44.0643 42.1996C43.6821 42.5548 43.2846 42.9002 43.1811 42.9671C43.0776 43.0341 42.9046 43.25 42.7966 43.4469C42.6887 43.6439 42.2389 43.991 41.7972 44.2182C41.2994 44.4743 40.7608 44.9679 40.3808 45.5163C40.0436 46.0029 39.6538 46.4011 39.5147 46.4011C39.3756 46.4011 39.127 46.6797 38.9622 47.0201C38.7974 47.3605 38.5993 47.6005 38.522 47.5535C38.4447 47.5064 38.315 47.5762 38.2339 47.7086C38.1528 47.8411 37.8239 48.1376 37.503 48.3675C37.1821 48.5975 36.9577 48.8465 37.0044 48.9209C37.0511 48.9953 36.5925 49.4921 35.9853 50.025L34.8814 50.9939L32.0211 51.0285L29.1608 51.0631L28.0685 50.0892C27.2646 49.3724 26.9075 49.159 26.7162 49.2809C26.5106 49.4119 26.646 49.6142 27.3649 50.2492L28.2735 51.0518L25.1842 51.0355C23.4851 51.0265 21.9723 51.0489 21.8224 51.0853C21.6724 51.1216 20.18 51.128 18.5059 51.0994ZM38.5408 48.482C38.5408 48.4448 38.6839 48.3038 38.8588 48.1687C39.147 47.946 39.1534 47.9523 38.9274 48.2363C38.69 48.5345 38.5408 48.6294 38.5408 48.482ZM20.9478 47.4642C20.9915 47.3349 21.1347 47.1939 21.2658 47.1508C21.4021 47.1061 21.4703 47.1732 21.4248 47.3075C21.3811 47.4368 21.238 47.5777 21.1068 47.6208C20.9705 47.6656 20.9024 47.5984 20.9478 47.4642ZM30.092 46.7612C30.0283 46.6597 30.1013 46.6297 30.263 46.6909C30.5778 46.8099 30.6354 46.9382 30.374 46.9382C30.28 46.9382 30.153 46.8586 30.092 46.7612ZM24.2651 42.7723C19.1849 37.585 14.6166 32.7543 14.0071 31.9255C13.7221 31.5377 13.2991 31.0928 13.0671 30.9367C12.8352 30.7806 12.0502 30.0671 11.3227 29.3511L10 28.0492L11.2318 26.899C11.9094 26.2664 13.6494 24.6406 15.0987 23.2861C17.7686 20.7908 20.0896 18.8286 20.3714 18.8286C20.4563 18.8286 20.5786 18.6648 20.6431 18.4646C20.7075 18.2645 21.1751 17.7206 21.6822 17.2561C22.1892 16.7916 22.7085 16.3108 22.8361 16.1878C23.0169 16.0135 25.7234 15.9647 35.1087 15.9665C41.7311 15.968 47.0728 16.0342 46.9792 16.1141C46.5985 16.4393 42.9483 18.9884 42.3569 19.3421C41.7589 19.6997 41.4786 19.7225 37.6669 19.7231C34.6681 19.7236 33.6463 19.6704 33.7414 19.5188C33.8337 19.3717 33.7212 19.3532 33.3433 19.4533C33.0536 19.53 31.0841 19.6424 28.9667 19.703L25.1169 19.8133L23.7977 21.2082C23.0721 21.9754 22.4509 22.781 22.4172 22.9984C22.3414 23.488 21.5189 24.737 21.2723 24.737C21.1726 24.737 21.3023 24.4071 21.5606 24.0039C21.8189 23.6007 21.9919 23.233 21.945 23.1868C21.8505 23.0936 17.045 27.8713 16.9418 28.1611C16.8457 28.4311 17.644 29.2013 17.9141 29.0992C18.042 29.0508 18.3197 29.2505 18.531 29.5429C18.7625 29.8633 19.0415 30.0501 19.233 30.013C20.2541 29.8153 20.9841 29.7773 20.7035 29.9365C20.5171 30.0423 20.4386 30.2439 20.4975 30.4659C20.5638 30.7154 20.5033 30.8244 20.2989 30.8244C19.797 30.8244 19.9629 31.1708 21.2823 32.8779C21.9848 33.7867 22.5934 34.7034 22.6348 34.9151C22.756 35.5354 23.2142 36.0746 24.0303 36.5576C24.8345 37.0335 25.1302 37.449 24.6647 37.449C24.2886 37.449 25.6975 40.2364 26.2103 40.5067C26.7765 40.8053 26.7794 40.6157 26.2204 39.8499C25.2211 38.4809 25.4492 38.6395 27.575 40.7918C29.6765 42.9194 29.7497 42.9736 30.6813 43.0914C31.7635 43.2281 31.917 43.4401 31.0447 43.5933C29.8424 43.8045 26.0894 44.4243 25.9915 44.4279C25.9358 44.43 25.1589 43.6849 24.2651 42.7723ZM25.823 36.0912C25.8246 35.5086 25.9101 34.9111 26.0131 34.7633C26.145 34.5742 26.1644 34.8655 26.0788 35.7481C25.9259 37.3237 25.8194 37.4666 25.823 36.0912ZM41.2813 36.3275C40.8527 35.3475 40.9859 35.232 41.6478 36.0099C42.2531 36.7213 42.2815 36.8333 41.8941 36.9798C41.6915 37.0564 41.5205 36.8744 41.2813 36.3275ZM14.0992 36.0997C13.7993 35.9644 13.6767 35.853 13.8266 35.852C13.9765 35.851 14.3036 35.9654 14.5535 36.1062C15.128 36.4297 14.8211 36.4254 14.0992 36.0997ZM31.2755 36.1105C31.1322 35.9403 31.1184 35.8376 31.2389 35.8376C31.4585 35.8376 31.7146 36.1773 31.5886 36.3015C31.5428 36.3465 31.402 36.2606 31.2755 36.1105ZM36.9726 31.8261C37.0338 31.3244 37.0845 30.7327 37.0854 30.5111C37.0895 29.4757 37.8127 30.5168 37.9263 31.7215C38.0054 32.5601 37.9982 32.5738 37.434 32.6554L36.8613 32.7382L36.9726 31.8261ZM26.5378 28.2904C25.507 27.185 24.7593 26.2492 24.8762 26.2108C25.1147 26.1325 27.6053 26.4867 27.8459 26.6332C27.9312 26.6851 28.0009 26.9285 28.0009 27.174C28.0009 27.4196 28.1314 28.1859 28.291 28.877C28.4505 29.5681 28.5429 30.171 28.4964 30.2169C28.4499 30.2627 27.5685 29.3958 26.5378 28.2904ZM26.3682 24.8818C26.3697 24.7529 26.4502 24.5266 26.5471 24.3789C26.6903 24.1606 26.7238 24.1837 26.7261 24.5026C26.7276 24.7184 26.6471 24.9447 26.5471 25.0055C26.4472 25.0664 26.3667 25.0107 26.3682 24.8818ZM26.1837 21.5036C26.1837 21.3994 26.2655 21.3638 26.3654 21.4247C26.4653 21.4856 26.5471 21.5709 26.5471 21.6143C26.5471 21.6577 26.4653 21.6933 26.3654 21.6933C26.2655 21.6933 26.1837 21.6079 26.1837 21.5036ZM16.4595 19.9131C16.8555 19.4731 17.4466 19.1128 17.5712 19.2355C17.6146 19.2782 17.3009 19.5386 16.8741 19.814C16.2047 20.246 16.1477 20.2596 16.4595 19.9131ZM17.8981 18.4958C18.2684 18.0856 18.3696 18.0325 18.3696 18.2484C18.3696 18.3231 18.1857 18.4957 17.9608 18.6318C17.5533 18.8784 17.5531 18.8779 17.8981 18.4958ZM23.4579 15.0687C23.4579 14.861 25.127 14.8564 26.4563 15.0604C27.2213 15.1778 27.0562 15.2037 25.4114 15.2238C24.214 15.2385 23.4579 15.1784 23.4579 15.0687ZM28.035 14.6173C28.1408 14.5131 31.0272 13.992 31.4536 14.0001C32.1429 14.0132 31.0911 14.3333 29.7586 14.5159C28.1574 14.7353 27.8998 14.7505 28.035 14.6173Z" fill="black"/>
</svg>
